PathFileType	4	(X/Y/Z)	/Users/rkoike/Documents/python/sports2d/webcam_20251024_144952/webcam_20251024_144952_px_person00.trc
DataRate	CameraRate	NumFrames	NumMarkers	Units	OrigDataRate	OrigDataStartFrame	OrigNumFrames
30	30	14	22	m	30	721	962
Frame#	Time	Hip			RHip			RKnee			RAnkle			RBigToe			RSmallToe			RHeel			LHip			LKnee			LAnkle			LBigToe			LSmallToe			LHeel			Neck			Head			Nose			RShoulder			RElbow			RWrist			LShoulder			LElbow			LWrist			
		X1	Y1	Z1	X2	Y2	Z2	X3	Y3	Z3	X4	Y4	Z4	X5	Y5	Z5	X6	Y6	Z6	X7	Y7	Z7	X8	Y8	Z8	X9	Y9	Z9	X10	Y10	Z10	X11	Y11	Z11	X12	Y12	Z12	X13	Y13	Z13	X14	Y14	Z14	X15	Y15	Z15	X16	Y16	Z16	X17	Y17	Z17	X18	Y18	Z18	X19	Y19	Z19	X20	Y20	Z20	X21	Y21	Z21	X22	Y22	Z22
721	24.058342004856055	457.7839139001639	702.7136713731394	0.0	387.49242202522845	703.20692686663	0.0	322.75741918347177	696.2897979099283	0.0	397.3592305782552	688.2197895933735	0.0			0.0			0.0			0.0	529.7216522069492	706.1711065867886	0.0	591.8512894456945	699.7115778217878	0.0	466.7896821210936	686.6431493999452	0.0	513.93505859375	710.3623046875	0.0	734.6243489583334	698.3541603088379	0.0			0.0	475.2902622433756	397.0226505838173	0.0	491.00393149477816	241.3153712997404	0.0	482.1354692568394	319.05786180798356	0.0	351.2427828263135	445.8362415940484	0.0	317.49508421966186	622.2641177963924	0.0	315.5210219526154	720.0435549912486	0.0	590.8711599425592	459.0692109878884	0.0	623.222943680858	633.3112853677922	0.0	600.065369589463	716.93398391218	0.0
722	24.091710024280264	458.4146043537748	703.5602658537948	0.0	388.84517214539636	705.6309058884964	0.0	323.523401572718	696.1883464293397	0.0	391.11631701832016	688.996486671912	0.0			0.0			0.0			0.0	530.3262030295881	707.1397351203074	0.0	591.5135146879541	699.517521020219	0.0	466.7896821210936	686.6431493999452	0.0	513.93505859375	710.3623046875	0.0	734.6243489583334	698.3541603088379	0.0			0.0	475.6794827039175	396.1743590569372	0.0	490.6426599957058	241.3001468166246	0.0	483.09285780395487	317.999105875443	0.0	350.6638288145568	446.8679009935209	0.0	312.9812472635428	623.3995266731692	0.0	287.12805892270967	717.0496096755943	0.0	592.8408424798372	458.96165937918187	0.0	625.0977536052259	633.6692947929251	0.0	601.5230217686324	718.3337647245626	0.0
723	24.125078043704477	459.8342082834323	706.4401420532666	0.0	389.49110097563494	708.1131476340207	0.0	323.84139665952523	696.1561662592773	0.0	386.11729085184965	689.618428491506	0.0			0.0			0.0			0.0	530.8856593909935	708.413322332166	0.0	591.3834582001499	699.4480513380599	0.0	466.7896821210936	686.6431493999452	0.0	513.93505859375	710.3623046875	0.0	734.6243489583334	698.3541603088379	0.0			0.0	475.97601244748563	395.73138437676926	0.0	490.9433472205693	240.35683502309877	0.0	484.25592559719666	317.0615385033961	0.0	350.262237335704	447.0260026568095	0.0	299.7043672608454	620.8587845411743	0.0	264.37536523227834	714.3306248540309	0.0	593.6853509202051	458.5211783100668	0.0	626.8657724149932	633.1836986623308	0.0	602.9272904092527	717.8851471188619	0.0
724	24.158446063128686	461.7495269712236	708.5591967831624	0.0	390.2757404097624	708.875888721182	0.0	323.9530254128471	696.1705209561527	0.0	385.49247439103107	689.696163529014	0.0			0.0			0.0			0.0	532.1731101483088	708.2671879269857	0.0	591.4342004731274	699.4605867321923	0.0	466.7896821210936	686.6431493999452	0.0	513.93505859375	710.3623046875	0.0	734.6243489583334	698.3541603088379	0.0			0.0	476.5146870674653	396.96952692344905	0.0	491.52284196970595	239.38531831213743	0.0	485.43403281537155	316.9406934344109	0.0	351.1460169282062	446.90723080844157	0.0	285.07521806422346	616.6799088092753	0.0	244.02712135805882	714.5409328271252	0.0	593.4107883730615	458.7254807914084	0.0	628.5164324980144	632.5798986793945	0.0	604.0677939867246	717.3682723360488	0.0
725	24.1918140825529	463.40683742142653	708.7840407657953	0.0	391.8430777955709	708.0746632585664	0.0	324.1579591470066	696.1921304965879	0.0	386.24047547431144	689.6031027729183	0.0			0.0			0.0			0.0	532.8739845195306	707.1182975848196	0.0	591.5296257086501	699.4791466700465	0.0	466.7896821210936	686.6431493999452	0.0	513.93505859375	710.3623046875	0.0	734.6243489583334	698.3541603088379	0.0			0.0	477.5091638588225	398.45982525953605	0.0	491.98273910830216	238.53233162752517	0.0	486.3766232113537	317.7462661714457	0.0	352.71852580070106	447.43454028175836	0.0	275.5230123686426	613.8246657857611	0.0	227.79808370026245	716.5809620843726	0.0	593.4779205265455	459.56851564006456	0.0	630.049774167954	632.3453617442115	0.0	605.4571774044425	718.3401978164939	0.0
726	24.225182101977108	464.2404029028421	708.3274583828544	0.0	392.6774262996671	707.3799948219533	0.0	323.90226920127054	696.1835996322899	0.0	386.6392312334262	689.5534925340161	0.0			0.0			0.0			0.0	532.799448998173	706.5837758326184	0.0	591.4847963693827	699.4831058621315	0.0	466.7896821210936	686.6431493999452	0.0	513.93505859375	710.3623046875	0.0	734.6243489583334	698.3541603088379	0.0			0.0	478.4749294766569	398.51830460368706	0.0	491.98404578617027	238.0580958559329	0.0	486.6368026007171	318.30023678171	0.0	354.6095489497505	447.863220822452	0.0	274.73229243362596	613.0672458144393	0.0	221.59558127520606	717.8270494394837	0.0	594.0181563085421	459.90358945533217	0.0	630.8716568469019	632.3579001528226	0.0	606.3885401321154	719.2946977093105	0.0
727	24.25855012140132	463.36035719132883	708.6773473690735	0.0	391.1691276287523	707.8248793464951	0.0	322.0295766699078	696.0992648852389	0.0	386.64011203810566	689.5533829508199	0.0			0.0			0.0			0.0	532.579823535681	707.2137486576901	0.0	591.0556448392172	699.4784383506994	0.0	466.7896821210936	686.6431493999452	0.0	513.93505859375	710.3623046875	0.0	734.6243489583334	698.3541603088379	0.0			0.0	478.5742456929824	397.7861373931864	0.0	491.0726096089683	238.04317479212725	0.0	485.5653533325228	317.6256417299899	0.0	356.5287357110493	447.0879416225812	0.0	281.7140494483893	613.388544116664	0.0	229.079058222158	717.1263280950247	0.0	594.3481406202891	459.3626880221082	0.0	630.7715457679133	632.678990635562	0.0	605.8307290840933	718.3146718985498	0.0
728	24.29191814082553	460.5086338009238	709.2456315558778	0.0	388.89249007586557	708.3283162698937	0.0	319.688547229212	695.9945468197712	0.0	386.5623548764022	689.5630569211145	0.0			0.0			0.0			0.0	531.5944224928293	707.947356725084	0.0	590.5207766654106	699.473498085435	0.0	466.7896821210936	686.6431493999452	0.0	513.93505859375	710.3623046875	0.0	734.6243489583334	698.3541603088379	0.0			0.0	477.63798427612875	397.5329520396182	0.0	488.89575632572837	237.85888242907743	0.0	482.6045503586364	316.3259263873404	0.0	357.5229475159253	446.1369040367481	0.0	292.485193752828	615.259084819589	0.0	248.89916088808724	716.6948017285266	0.0	594.493359077515	458.6189171297268	0.0	630.592511319134	633.6938270865361	0.0	603.6220198777022	717.1742981128455	0.0
729	24.325286160249743	457.15587759768016	708.6384071296865	0.0	388.7061704625459	707.8587373332149	0.0	324.85989360089235	696.223383075468	0.0	386.53344900097164	689.5666531760977	0.0			0.0			0.0			0.0	529.0585967623655	708.103510141867	0.0	591.6920888346372	699.4807292818116	0.0	466.7896821210936	686.6431493999452	0.0	513.93505859375	710.3623046875	0.0	734.6243489583334	698.3541603088379	0.0			0.0	476.3521166489846	397.03399915312735	0.0	485.866982949676	237.0531731742236	0.0	478.06691024851193	315.4189729343982	0.0	357.22426609754785	446.59572321164893	0.0	303.93335592103415	619.2499382005411	0.0	274.9191015396531	718.5561784292283	0.0	594.8421190710881	458.2295587819949	0.0	631.0894140213035	635.446494671905	0.0	600.8148604643993	718.5078819941467	0.0
730	24.35865417967395	455.58470678684927	707.1326920540532	0.0	390.4676327331643	706.9542842916986	0.0	346.60565249011404	697.1863110098075	0.0	386.53799356266677	689.5660877753825	0.0			0.0			0.0			0.0	526.6467082803952	707.8681758116129	0.0	596.620920672921	699.5121970093703	0.0	466.7896821210936	686.6431493999452	0.0	513.93505859375	710.3623046875	0.0	734.6243489583334	698.3541603088379	0.0			0.0	475.2895192448225	395.48572995314896	0.0	483.0285616877097	236.16233014404594	0.0	473.37402028644897	315.2269779574612	0.0	356.2229352786087	448.182802793462	0.0	313.9463133919859	623.7085205434634	0.0	298.9695180396255	721.0454812494426	0.0	595.2696775601196	458.07881172845066	0.0	631.7347781497831	637.044986520325	0.0	598.9635603061483	721.297850388761	0.0
731	24.392022199098164	456.962285791866	705.9701594072909	0.0	391.68626434424465	706.1851273140041	0.0	378.0517575688085	698.5786254296015	0.0	386.54533312722856	689.5651746411066	0.0			0.0			0.0			0.0	527.4476635137053	707.3754385678398	0.0	603.7478906571122	699.5574854718388	0.0	466.7896821210936	686.6431493999452	0.0	513.93505859375	710.3623046875	0.0	734.6243489583334	698.3541603088379	0.0			0.0	474.5920637067735	394.5034730432474	0.0	480.7793266770616	236.00530162519698	0.0	470.1470376167057	315.40803948267626	0.0	355.41275770213144	449.46292984273697	0.0	320.22235730426115	626.2798925434506	0.0	315.9930155129248	721.2966867155102	0.0	595.0572403091912	457.6708084899943	0.0	631.6110576790497	637.6169324068613	0.0	598.492772612209	722.4147090473593	0.0
732	24.425390218522374	459.46937000847214	705.4947939016713	0.0	391.3874654535001	705.778196773188	0.0	399.79842283140164	699.5414253638049	0.0	386.5471554006849	689.5649479273364	0.0			0.0			0.0			0.0	530.3399304072885	706.999109792809	0.0	608.6763415635403	699.5887178278131	0.0	466.7896821210936	686.6431493999452	0.0	513.93505859375	710.3623046875	0.0	734.6243489583334	698.3541603088379	0.0			0.0	474.43246862598977	395.0411185742602	0.0	478.60807130915146	236.24927655201523	0.0	468.8705383387748	315.25765894153096	0.0	355.28561865602614	449.6541573070491	0.0	321.57911981342863	626.2759055490392	0.0	325.02865862622	719.4939020937594	0.0	594.2333913604849	456.9729329033409	0.0	631.2133151136335	637.7209814810241	0.0	598.8864336880146	720.7074390873804	0.0
733	24.458758237946586	459.6870800681798	705.9507425284356	0.0	390.3732661492071	706.7969594906899	0.0	404.9688025719548	699.7703183722509	0.0	386.5463915785508	689.5650429564305	0.0			0.0			0.0			0.0	529.9924694364918	707.7848598410452	0.0	609.8480412976019	699.5961180246044	0.0	466.7896821210936	686.6431493999452	0.0	513.93505859375	710.3623046875	0.0	734.6243489583334	698.3541603088379	0.0			0.0	474.8268401939214	394.8589816636199	0.0	476.33280171854676	235.50755007761677	0.0	468.7123199525313	314.39390255511745	0.0	355.1907370686221	449.1611008282099	0.0	319.4305309008689	625.2210056359805	0.0	325.95323972278885	718.7463018113891	0.0	594.2298171576318	456.49011699774024	0.0	631.4925511683989	637.8549680934344	0.0	600.4292834318671	718.5675191032051	0.0
734	24.492126257370796	457.6186232102881	707.3860605959952	0.0	389.25524172559307	709.2836170768517	0.0	402.621059920632	699.6663683782982	0.0	386.5457524955854	689.5651224664009	0.0			0.0			0.0			0.0	526.2369784700577	709.7163468391611	0.0	609.3159523795094	699.5927359912856	0.0	466.7896821210936	686.6431493999452	0.0	513.93505859375	710.3623046875	0.0	734.6243489583334	698.3541603088379	0.0			0.0	475.218149995828	392.8934745220717	0.0	474.465256975925	233.75383180870213	0.0	468.61455934763535	313.3538442615621	0.0	354.57452841470615	448.75507127245055	0.0	316.23571257106573	624.9029098627809	0.0	318.65415216237074	719.9235634139923	0.0	595.4459654711708	456.40416206613054	0.0	631.7852444900446	637.310839980453	0.0	603.0754318982631	718.766014492336	0.0
